<svg width="20" height="17" viewBox="0 0 20 17" fill="none" xmlns="http://www.w3.org/2000/svg">
<path d="M0.00892689 1.49258C-0.0403714 1.2461 0.119476 1.00632 0.365956 0.957024C0.667947 0.896624 0.95974 0.834758 1.23901 0.775546C1.97715 0.619047 2.62785 0.481087 3.14821 0.437726C3.51373 0.407267 3.87196 0.416471 4.18733 0.524884C4.51464 0.6374 4.77508 0.85001 4.94451 1.17254C5.17089 1.51327 5.34198 1.79843 5.48816 2.04206L5.48924 2.04386C5.64064 2.29618 5.75918 2.49322 5.8889 2.67483C6.03895 2.8849 6.20828 3.08038 6.46477 3.29901C6.55034 3.26189 6.64189 3.23779 6.73647 3.22834C9.05505 2.99648 11.5959 2.92915 13.7313 2.97696C14.7995 3.00088 15.7756 3.05381 16.5786 3.13106C17.3569 3.20593 18.0451 3.30971 18.4932 3.45907C18.9776 3.62054 19.267 3.99485 19.4299 4.32938C19.5935 4.66521 19.677 5.0503 19.7153 5.42473C19.7924 6.17883 19.705 7.08355 19.4866 7.95687C19.268 8.83158 18.9014 9.74174 18.3694 10.4847C17.8404 11.2237 17.0843 11.88 16.0793 12.0475C14.6145 12.2916 12.4839 12.2868 10.7791 12.23C9.91416 12.2012 9.1365 12.158 8.57512 12.122C8.29424 12.104 8.06701 12.0877 7.9095 12.076C7.83074 12.0701 7.76937 12.0653 7.72741 12.062L7.67927 12.0581L7.66219 12.0567C7.66209 12.0567 7.66172 12.0567 7.73731 11.1496C7.73731 11.1496 13.1989 11.6047 15.9297 11.1496C18.6604 10.6945 19.5707 4.77775 18.2053 4.32261C16.9296 3.89737 12.0782 3.70487 7.73437 4.05261C7.58229 4.06478 7.43083 4.07762 7.28016 4.09113C7.12825 4.10476 6.97716 4.11907 6.82705 4.13408L7.73731 11.1496L7.66219 12.0567C7.23481 12.0211 6.8898 11.692 6.83461 11.2667L5.92435 4.2512C5.91485 4.17796 5.91437 4.1045 5.92249 4.03234C5.59036 3.75589 5.3564 3.49539 5.14819 3.20391C4.99536 2.98994 4.85936 2.76328 4.71411 2.5212L4.7087 2.51219C4.55953 2.26356 4.39371 1.98729 4.1727 1.65578C4.16223 1.64008 4.15275 1.62374 4.14431 1.60686C4.08566 1.48956 4.01011 1.42651 3.89141 1.3857C3.75166 1.33766 3.54097 1.31841 3.2238 1.34484C2.76438 1.38313 2.20071 1.50262 1.49279 1.65268C1.20196 1.71433 0.886761 1.78115 0.544481 1.84961C0.298001 1.89891 0.0582252 1.73906 0.00892689 1.49258Z" fill="black"/>
<path fill-rule="evenodd" clip-rule="evenodd" d="M9.1027 16.4226C10.1081 16.4226 10.9232 15.6075 10.9232 14.6021C10.9232 13.5966 10.1081 12.7816 9.1027 12.7816C8.09725 12.7816 7.28218 13.5966 7.28218 14.6021C7.28218 15.6075 8.09725 16.4226 9.1027 16.4226ZM9.1027 15.7854C9.75624 15.7854 10.286 15.2556 10.286 14.6021C10.286 13.9485 9.75624 13.4187 9.1027 13.4187C8.44916 13.4187 7.91936 13.9485 7.91936 14.6021C7.91936 15.2556 8.44916 15.7854 9.1027 15.7854Z" fill="black"/>
<path fill-rule="evenodd" clip-rule="evenodd" d="M17.2951 14.6021C17.2951 15.6075 16.48 16.4226 15.4745 16.4226C14.4691 16.4226 13.654 15.6075 13.654 14.6021C13.654 13.5966 14.4691 12.7816 15.4745 12.7816C16.48 12.7816 17.2951 13.5966 17.2951 14.6021ZM16.6579 14.6021C16.6579 15.2556 16.1281 15.7854 15.4745 15.7854C14.821 15.7854 14.2912 15.2556 14.2912 14.6021C14.2912 13.9485 14.821 13.4187 15.4745 13.4187C16.1281 13.4187 16.6579 13.9485 16.6579 14.6021Z" fill="black"/>
</svg>
