<svg width="70" height="24" viewBox="0 0 70 24" fill="none" xmlns="http://www.w3.org/2000/svg">
<path d="M9.016 23.196C6.72 23.196 4.83467 22.6547 3.36 21.572C1.88533 20.4707 1.092 18.9027 0.98 16.868H6.832C6.888 17.5587 7.09333 18.0627 7.448 18.38C7.80267 18.6973 8.26 18.856 8.82 18.856C9.324 18.856 9.73467 18.7347 10.052 18.492C10.388 18.2307 10.556 17.876 10.556 17.428C10.556 16.8493 10.2853 16.4013 9.744 16.084C9.20267 15.7667 8.32533 15.412 7.112 15.02C5.824 14.5907 4.77867 14.18 3.976 13.788C3.192 13.3773 2.50133 12.7893 1.904 12.024C1.32533 11.24 1.036 10.2227 1.036 8.972C1.036 7.70267 1.35333 6.62 1.988 5.724C2.62267 4.80933 3.5 4.11867 4.62 3.652C5.74 3.18533 7.00933 2.952 8.428 2.952C10.724 2.952 12.5533 3.49333 13.916 4.576C15.2973 5.64 16.0347 7.14267 16.128 9.084H10.164C10.1453 8.48667 9.95867 8.03867 9.604 7.74C9.268 7.44133 8.82933 7.292 8.288 7.292C7.87733 7.292 7.54133 7.41333 7.28 7.656C7.01867 7.89867 6.888 8.244 6.888 8.692C6.888 9.06533 7.028 9.392 7.308 9.672C7.60667 9.93333 7.97067 10.1667 8.4 10.372C8.82933 10.5587 9.464 10.8013 10.304 11.1C11.5547 11.5293 12.5813 11.9587 13.384 12.388C14.2053 12.7987 14.9053 13.3867 15.484 14.152C16.0813 14.8987 16.38 15.8507 16.38 17.008C16.38 18.184 16.0813 19.2387 15.484 20.172C14.9053 21.1053 14.056 21.8427 12.936 22.384C11.8347 22.9253 10.528 23.196 9.016 23.196ZM24.4193 2.28V23H18.9313V2.28H24.4193ZM30.3166 5.836C29.3459 5.836 28.5619 5.57467 27.9646 5.052C27.3859 4.51067 27.0966 3.83867 27.0966 3.036C27.0966 2.21467 27.3859 1.53333 27.9646 0.992C28.5619 0.450665 29.3459 0.179998 30.3166 0.179998C31.2686 0.179998 32.0339 0.450665 32.6126 0.992C33.2099 1.53333 33.5086 2.21467 33.5086 3.036C33.5086 3.83867 33.2099 4.51067 32.6126 5.052C32.0339 5.57467 31.2686 5.836 30.3166 5.836ZM33.0326 7.292V23H27.5446V7.292H33.0326ZM35.2618 15.132C35.2618 13.508 35.5978 12.0893 36.2698 10.876C36.9418 9.66267 37.8752 8.72933 39.0698 8.076C40.2832 7.42267 41.6645 7.096 43.2138 7.096C45.2112 7.096 46.8912 7.64667 48.2538 8.748C49.6165 9.83067 50.4938 11.352 50.8858 13.312H45.0618C44.7258 12.2853 44.0725 11.772 43.1018 11.772C42.4112 11.772 41.8605 12.0613 41.4498 12.64C41.0578 13.2 40.8618 14.0307 40.8618 15.132C40.8618 16.2333 41.0578 17.0733 41.4498 17.652C41.8605 18.2307 42.4112 18.52 43.1018 18.52C44.0912 18.52 44.7445 18.0067 45.0618 16.98H50.8858C50.4938 18.9213 49.6165 20.4427 48.2538 21.544C46.8912 22.6453 45.2112 23.196 43.2138 23.196C41.6645 23.196 40.2832 22.8693 39.0698 22.216C37.8752 21.5627 36.9418 20.6293 36.2698 19.416C35.5978 18.2027 35.2618 16.7747 35.2618 15.132ZM62.9937 23L58.6537 16.56V23H53.1657V2.28H58.6537V13.452L62.9937 7.292H69.5737L63.3857 15.188L69.6857 23H62.9937Z" fill="white"/>
</svg>
