<svg width="24" height="15" viewBox="0 0 24 15" fill="none" xmlns="http://www.w3.org/2000/svg">
<path fill-rule="evenodd" clip-rule="evenodd" d="M23.45 1.92847C23.616 1.38247 23.45 0.980469 22.655 0.980469H20.03C19.362 0.980469 19.054 1.32747 18.887 1.71047C18.887 1.71047 17.552 4.90647 15.661 6.98247C15.049 7.58447 14.771 7.77547 14.437 7.77547C14.27 7.77547 14.019 7.58447 14.019 7.03747V1.92847C14.019 1.27247 13.835 0.980469 13.279 0.980469H9.151C8.734 0.980469 8.483 1.28447 8.483 1.57347C8.483 2.19447 9.429 2.33847 9.526 4.08647V7.88447C9.526 8.71747 9.373 8.86847 9.039 8.86847C8.149 8.86847 5.984 5.65747 4.699 1.98347C4.45 1.26847 4.198 0.980469 3.527 0.980469H0.9C0.15 0.980469 0 1.32747 0 1.71047C0 2.39247 0.89 5.78047 4.145 10.2615C6.315 13.3215 9.37 14.9805 12.153 14.9805C13.822 14.9805 14.028 14.6125 14.028 13.9775V11.6645C14.028 10.9275 14.186 10.7805 14.715 10.7805C15.105 10.7805 15.772 10.9725 17.33 12.4475C19.11 14.1965 19.403 14.9805 20.405 14.9805H23.03C23.78 14.9805 24.156 14.6125 23.94 13.8845C23.702 13.1605 22.852 12.1095 21.725 10.8625C21.113 10.1525 20.195 9.38747 19.916 9.00447C19.527 8.51347 19.638 8.29447 19.916 7.85747C19.916 7.85747 23.116 3.43147 23.449 1.92847H23.45Z" fill="white"/>
</svg>
