<svg width="74" height="26" viewBox="0 0 74 26" fill="none" xmlns="http://www.w3.org/2000/svg">
<path d="M8.65981 25.21C6.19981 25.21 4.1798 24.63 2.5998 23.47C1.0198 22.29 0.169805 20.61 0.0498047 18.43H6.31981C6.37981 19.17 6.5998 19.71 6.9798 20.05C7.35981 20.39 7.84981 20.56 8.44981 20.56C8.98981 20.56 9.42981 20.43 9.76981 20.17C10.1298 19.89 10.3098 19.51 10.3098 19.03C10.3098 18.41 10.0198 17.93 9.43981 17.59C8.85981 17.25 7.9198 16.87 6.6198 16.45C5.2398 15.99 4.1198 15.55 3.2598 15.13C2.4198 14.69 1.6798 14.06 1.0398 13.24C0.419805 12.4 0.109805 11.31 0.109805 9.96999C0.109805 8.60999 0.449805 7.44999 1.1298 6.48999C1.8098 5.50999 2.7498 4.76999 3.9498 4.26999C5.14981 3.76999 6.50981 3.51999 8.02981 3.51999C10.4898 3.51999 12.4498 4.09999 13.9098 5.25999C15.3898 6.39999 16.1798 8.00999 16.2798 10.09H9.8898C9.86981 9.44999 9.66981 8.96999 9.28981 8.64999C8.92981 8.32999 8.4598 8.16999 7.8798 8.16999C7.43981 8.16999 7.07981 8.29999 6.79981 8.55999C6.5198 8.81999 6.37981 9.18999 6.37981 9.66999C6.37981 10.07 6.5298 10.42 6.8298 10.72C7.14981 11 7.5398 11.25 7.9998 11.47C8.4598 11.67 9.1398 11.93 10.0398 12.25C11.3798 12.71 12.4798 13.17 13.3398 13.63C14.2198 14.07 14.9698 14.7 15.5898 15.52C16.2298 16.32 16.5498 17.34 16.5498 18.58C16.5498 19.84 16.2298 20.97 15.5898 21.97C14.9698 22.97 14.0598 23.76 12.8598 24.34C11.6798 24.92 10.2798 25.21 8.65981 25.21Z" fill="black"/>
<path d="M25.1633 2.79999V25H19.2833V2.79999H25.1633Z" fill="black"/>
<path d="M31.4818 6.60999C30.4418 6.60999 29.6018 6.32999 28.9618 5.76999C28.3418 5.18999 28.0318 4.46999 28.0318 3.60999C28.0318 2.72999 28.3418 1.99999 28.9618 1.41999C29.6018 0.839988 30.4418 0.549988 31.4818 0.549988C32.5018 0.549988 33.3218 0.839988 33.9418 1.41999C34.5818 1.99999 34.9018 2.72999 34.9018 3.60999C34.9018 4.46999 34.5818 5.18999 33.9418 5.76999C33.3218 6.32999 32.5018 6.60999 31.4818 6.60999ZM34.3918 8.16999V25H28.5118V8.16999H34.3918Z" fill="black"/>
<path d="M36.7803 16.57C36.7803 14.83 37.1404 13.31 37.8604 12.01C38.5804 10.71 39.5804 9.70999 40.8604 9.00999C42.1604 8.30999 43.6404 7.95999 45.3004 7.95999C47.4404 7.95999 49.2404 8.54999 50.7004 9.72999C52.1604 10.89 53.1004 12.52 53.5204 14.62H47.2804C46.9204 13.52 46.2204 12.97 45.1804 12.97C44.4403 12.97 43.8503 13.28 43.4104 13.9C42.9904 14.5 42.7804 15.39 42.7804 16.57C42.7804 17.75 42.9904 18.65 43.4104 19.27C43.8503 19.89 44.4403 20.2 45.1804 20.2C46.2404 20.2 46.9404 19.65 47.2804 18.55H53.5204C53.1004 20.63 52.1604 22.26 50.7004 23.44C49.2404 24.62 47.4404 25.21 45.3004 25.21C43.6404 25.21 42.1604 24.86 40.8604 24.16C39.5804 23.46 38.5804 22.46 37.8604 21.16C37.1404 19.86 36.7803 18.33 36.7803 16.57Z" fill="black"/>
<path d="M66.493 25L61.843 18.1V25H55.963V2.79999H61.843V14.77L66.493 8.16999H73.543L66.913 16.63L73.663 25H66.493Z" fill="black"/>
</svg>
