<svg width="182" height="40" viewBox="0 0 182 40" fill="none" xmlns="http://www.w3.org/2000/svg">
<path d="M75.76 29.7654H60.1203L80.098 3.043C80.3067 2.75447 80.3952 2.39622 80.3449 2.04373C80.2945 1.69124 80.1094 1.37205 79.8283 1.15342C79.5993 0.981164 79.322 0.885244 79.0355 0.879223H50.1404C49.5301 0.878996 48.9258 1.00038 48.3629 1.23629C47.8 1.47219 47.2898 1.81789 46.862 2.25319C45.9892 3.1351 45.5011 4.32667 45.5044 5.56741C45.5049 6.80785 45.9924 7.99849 46.862 8.88312C47.2913 9.31636 47.8018 9.6606 48.3644 9.89612C48.927 10.1316 49.5305 10.2538 50.1404 10.2556H63.1335L43.0843 36.9571C42.9676 37.1058 42.8835 37.2774 42.8377 37.4608C42.7918 37.6441 42.7852 37.8351 42.8183 38.0212C42.8513 38.2073 42.9233 38.3844 43.0295 38.5407C43.1357 38.6971 43.2737 38.8293 43.4345 38.9286C43.6491 39.0598 43.8965 39.1254 44.1468 39.1209H75.7615C76.9423 39.0532 78.0515 38.5328 78.8582 37.6679C79.6703 36.7977 80.1215 35.6514 80.1204 34.461C80.1204 33.2688 79.6689 32.1214 78.8582 31.2541C78.0505 30.3901 76.9409 29.8708 75.76 29.8041V29.7654ZM176.738 0.879223C175.821 0.88263 174.925 1.15877 174.166 1.67251C173.406 2.18626 172.816 2.91438 172.471 3.76426C172.24 4.33203 172.121 4.94152 172.123 5.55251V21.2116L147.153 1.18322C147.018 1.07351 146.863 0.991489 146.696 0.941843C146.529 0.892198 146.354 0.875906 146.181 0.893898C146.008 0.911891 145.841 0.963816 145.688 1.0467C145.535 1.12959 145.4 1.24181 145.29 1.37695C145.092 1.61886 144.987 1.92296 144.992 2.23531V34.4238C145.038 35.6308 145.546 36.7738 146.408 37.6098C147.265 38.4455 148.414 38.9139 149.612 38.9152C150.805 38.9152 151.954 38.4473 152.816 37.6098C153.678 36.7689 154.185 35.629 154.231 34.4252V18.7528L179.201 38.7886C179.348 38.9017 179.517 38.9827 179.697 39.0263C179.878 39.0699 180.065 39.0752 180.247 39.0417C180.43 39.0083 180.603 38.9369 180.756 38.8322C180.909 38.7275 181.038 38.5918 181.135 38.4339C181.268 38.2219 181.339 37.9774 181.341 37.7275V5.554C181.343 4.31797 180.858 3.13087 179.992 2.24872C179.564 1.81548 179.055 1.4711 178.493 1.23538C177.934 1.00045 177.333 0.879376 176.726 0.879223H176.738ZM110.696 30.6535C100.138 30.6535 92.2402 25.0206 92.2402 19.9852C92.2402 14.9512 100.138 9.32571 110.696 9.32571C121.256 9.32571 129.132 14.9512 129.132 19.9852C129.132 25.0206 121.283 30.6535 110.696 30.6535ZM110.696 1.22262e-06C95.4069 1.22262e-06 83.0159 8.94273 83.0159 19.9852C83.0159 31.0276 95.4084 39.9718 110.696 39.9718C125.986 39.9718 138.407 31.0142 138.407 19.9852C138.407 8.95763 125.986 1.22262e-06 110.696 1.22262e-06ZM19.7969 30.6595C17.7059 30.6618 15.6622 30.0385 13.9284 28.8698C12.186 27.6936 10.8307 26.0282 10.033 24.0832C9.23142 22.1315 9.02003 19.9875 9.42502 17.9167C9.82734 15.8501 10.8298 13.9478 12.3071 12.4477C13.7763 10.956 15.6572 9.9364 17.7091 9.51944C19.7574 9.10457 21.883 9.31324 23.8115 10.1185C25.7466 10.928 27.3975 12.2942 28.5548 14.0437C29.9176 16.0971 30.5324 18.5569 30.2957 21.01C30.0591 23.4632 28.9855 25.7601 27.2553 27.5152C26.2807 28.5039 25.1197 29.2896 23.8395 29.8268C22.5592 30.3639 21.1852 30.6419 19.7969 30.6446V30.6595ZM19.7969 1.22262e-06C15.8791 -0.00138112 12.0505 1.16946 8.80361 3.36191C5.54055 5.56701 3.00299 8.68841 1.51054 12.3329C0.0106213 15.9909 -0.383159 20.0085 0.377981 23.888C1.13417 27.7597 3.01467 31.3227 5.78445 34.1317C8.53889 36.9251 12.064 38.8335 15.9089 39.6127C19.7462 40.3876 23.725 39.9941 27.3403 38.4831C30.9658 36.9644 34.0582 34.4026 36.2249 31.123C38.4006 27.8356 39.5629 23.97 39.5674 20.015C39.5713 17.3891 39.0626 14.7877 38.0698 12.3568C37.0808 9.93311 35.6256 7.72713 33.7869 5.86396C31.9552 4.00827 29.7744 2.53345 27.3701 1.52448C24.9719 0.518539 22.3974 0.000298687 19.7969 1.22262e-06Z" fill="white"/>
</svg>
