<svg width="299" height="40" viewBox="0 0 299 40" fill="none" xmlns="http://www.w3.org/2000/svg">
<g clip-path="url(#clip0_3003_11)">
<path d="M114.307 12.0921L119.647 8.16858H101.783V31.7457H119.647V27.8221H106.88V21.7836H117.771V17.8557H106.88V12.0914H114.307V12.0921ZM88.296 17.3571H82.0931V12.0921H91.9981L97.3381 8.16358H76.996V31.7457H87.6396C93.6124 31.7457 97.0353 29.045 97.0353 24.3386C97.0353 19.8386 93.9296 17.3571 88.296 17.3571ZM87.4103 27.8221H82.0931V21.2857H87.4103C90.6446 21.2857 92.1538 22.38 92.1538 24.5543C92.1538 26.775 90.5574 27.8221 87.4103 27.8221ZM134.122 8.16858H124.396V31.7457H129.492V25.0664H134.122C140.329 25.0664 144.187 21.8114 144.187 16.6057C144.182 11.4007 140.329 8.16858 134.122 8.16858ZM134.012 21.1429H129.492V12.0921H134.012C137.278 12.0921 139.076 13.6993 139.076 16.615C139.076 19.5314 137.278 21.1429 134.012 21.1429ZM68.2431 26.6414C66.936 27.36 65.4124 27.74 63.8431 27.74C59.2467 27.74 55.9117 24.4664 55.9117 19.9571C55.9117 15.4479 59.2467 12.17 63.8438 12.17C65.5824 12.17 67.1417 12.66 68.4817 13.6164L72.1381 10.9293L71.8946 10.7186C69.7617 8.84572 66.9081 7.85715 63.646 7.85715C60.1088 7.85715 56.8974 9.04715 54.6038 11.2086C52.2967 13.3829 51.0303 16.4457 51.0303 19.8243C51.0303 23.2214 52.2967 26.325 54.5946 28.5686C56.8974 30.8164 60.1046 32.0571 63.6188 32.0571C67.2931 32.0571 70.5046 30.78 72.6796 28.45L69.381 26.0229L68.2431 26.6414Z" fill="white"/>
<path d="M177.676 14.0286L170.088 26.545H167.964L160.206 14.1936V31.7229H155.99V8.17285H161.317L169.138 20.9921L176.896 8.17285H181.887V31.7286H177.672V14.0286H177.676ZM208.936 31.7278H204.45L202.192 26.1421H191.37L189.145 31.7278H184.865L194.44 8.17285H199.229L208.936 31.7278ZM200.642 22.2693L196.765 12.6093L192.889 22.2693H200.642ZM216.148 24.3886V31.7229H211.932V8.17285H219.79C227.241 8.17285 230.411 10.8329 230.411 16.1486C230.411 21.6329 226.704 24.3936 219.79 24.3936H216.148V24.3886ZM216.148 12.0414V20.52H220.093C224.007 20.52 226.03 19.2429 226.03 16.0429C226.03 13.15 224.277 12.0371 220.162 12.0371H216.148V12.0414ZM238.944 31.7278H234.728V8.17285H238.944V18.0664H242.486L250.074 8.17357H255.198L246.197 19.3807L256.652 31.7321H251.252L242.687 21.5364H238.944V31.7278ZM274.718 21.5321H263.86V27.8593H276.338V31.7278H259.648V8.17285H275.971V12.0414H263.864V17.6593H274.723V21.5321H274.718ZM298.56 12.0414H290.601V31.7271H286.385V12.0414H278.563V8.17285H298.56V12.0414Z" fill="white"/>
<path d="M36.101 7.77142C37.0576 8.99788 37.8681 10.3316 38.516 11.7457L20.1539 25.1771L12.4824 20.4043V14.6621L20.1539 19.4357L36.101 7.77142Z" fill="white"/>
<path d="M4.65571 19.9993C4.65571 19.7421 4.66214 19.4857 4.675 19.2314L0.025 19C0.00928571 19.3314 0 19.6643 0 19.9986C0 25.52 2.255 30.5214 5.90286 34.1414L9.19929 30.87C6.395 28.0843 4.65571 24.2393 4.65571 19.9986V19.9993Z" fill="white"/>
<path d="M20.1514 4.61929C20.4114 4.61929 20.6692 4.62858 20.9257 4.64072L21.1585 0.0250062C20.823 0.00877809 20.4872 0.000442452 20.1514 6.23672e-06C14.8133 -0.0101777 9.68895 2.09633 5.90137 5.85786L9.19708 9.12929C12.1079 6.23565 16.047 4.61386 20.1514 4.61929Z" fill="white"/>
<path d="M20.1529 35.3793C19.8936 35.3793 19.6358 35.3736 19.3793 35.3607L19.1465 39.975C19.4801 39.9907 19.8158 40 20.1529 40C25.7172 40 30.7558 37.7622 34.4029 34.1422L31.1072 30.8707C28.1955 33.7628 24.2568 35.3839 20.1529 35.3793Z" fill="white"/>
<path d="M28.8905 7.30285L32.8105 4.43642C29.2215 1.55619 24.7551 -0.00933015 20.1533 -4.35099e-06V4.62071C23.2692 4.61521 26.3143 5.55 28.8905 7.30285Z" fill="white"/>
<path d="M40.3059 19.9993C40.3059 18.7757 40.1945 17.5793 39.983 16.415L35.6452 19.5879C35.648 19.7243 35.6516 19.8607 35.6516 19.9979C35.6516 24.5129 33.6802 28.5807 30.5459 31.3964L33.6745 34.8286C37.7466 31.1707 40.3059 25.8807 40.3059 19.9993Z" fill="white"/>
<path d="M20.1548 35.3793C15.6048 35.3793 11.5069 33.4222 8.66906 30.3129L5.21191 33.4179C7.10607 35.496 9.41385 37.1551 11.9871 38.2887C14.5604 39.4222 17.3422 40.0051 20.1541 40V35.3786L20.1548 35.3793Z" fill="white"/>
<path d="M9.76071 8.59929L6.63214 5.16714C2.55857 8.82643 0 14.1164 0 19.9979H4.65571C4.65714 15.4814 6.62714 11.415 9.76071 8.59929Z" fill="white"/>
</g>
<defs>
<clipPath id="clip0_3003_11">
<rect width="298.571" height="40" fill="white"/>
</clipPath>
</defs>
</svg>
