<svg width="17" height="16" viewBox="0 0 17 16" fill="none" xmlns="http://www.w3.org/2000/svg">
<path fill-rule="evenodd" clip-rule="evenodd" d="M11.8986 11.7215C10.6373 12.9641 8.89479 13.7326 6.97006 13.7326C3.1206 13.7326 0 10.6585 0 6.86631C0 3.07415 3.1206 0 6.97006 0C10.8195 0 13.9401 3.07415 13.9401 6.86631C13.9401 8.38123 13.4421 9.78157 12.5985 10.9171L16.843 15.0983C17.0523 15.3046 17.0523 15.639 16.843 15.8453C16.6336 16.0516 16.2941 16.0516 16.0847 15.8453L11.8986 11.7215ZM12.8678 6.86631C12.8678 10.0751 10.2273 12.6763 6.97006 12.6763C3.71283 12.6763 1.07232 10.0751 1.07232 6.86631C1.07232 3.65756 3.71283 1.05635 6.97006 1.05635C10.2273 1.05635 12.8678 3.65756 12.8678 6.86631Z" fill="black"/>
</svg>
