<svg width="980" height="317" viewBox="0 0 980 317" fill="none" xmlns="http://www.w3.org/2000/svg">
<path d="M164.568 113C163.81 103.53 160.259 96.1439 153.914 90.8409C147.664 85.5379 138.147 82.8864 125.363 82.8864C117.219 82.8864 110.543 83.8807 105.335 85.8693C100.221 87.7633 96.4334 90.3674 93.9712 93.6818C91.5091 96.9962 90.2307 100.784 90.136 105.045C89.9466 108.549 90.5621 111.722 91.9826 114.562C93.4978 117.309 95.8652 119.818 99.0849 122.091C102.305 124.269 106.424 126.258 111.443 128.057C116.462 129.856 122.428 131.466 129.341 132.886L153.204 138C169.303 141.409 183.081 145.907 194.539 151.494C205.998 157.081 215.373 163.663 222.664 171.239C229.956 178.72 235.306 187.148 238.716 196.523C242.219 205.898 244.019 216.125 244.113 227.205C244.019 246.333 239.236 262.527 229.767 275.784C220.297 289.042 206.755 299.127 189.142 306.04C171.623 312.953 150.553 316.409 125.931 316.409C100.647 316.409 78.583 312.669 59.7383 305.188C40.9883 297.706 26.4049 286.201 15.9883 270.67C5.66631 255.045 0.457978 235.064 0.363281 210.727H75.3633C75.8368 219.629 78.0621 227.11 82.0394 233.17C86.0167 239.231 91.6038 243.824 98.8008 246.949C106.092 250.074 114.757 251.636 124.795 251.636C133.223 251.636 140.278 250.595 145.96 248.511C151.642 246.428 155.95 243.54 158.886 239.847C161.822 236.153 163.337 231.939 163.431 227.205C163.337 222.754 161.869 218.871 159.028 215.557C156.282 212.148 151.736 209.117 145.392 206.466C139.047 203.72 130.477 201.163 119.681 198.795L90.7042 192.545C64.9466 186.958 44.6341 177.631 29.7667 164.562C14.994 151.4 7.65495 133.455 7.74964 110.727C7.65495 92.2614 12.5792 76.1155 22.5224 62.2898C32.5603 48.3693 46.4334 37.5265 64.1417 29.7614C81.9447 21.9962 102.352 18.1136 125.363 18.1136C148.848 18.1136 169.161 22.0436 186.301 29.9034C203.441 37.7633 216.651 48.8428 225.931 63.1421C235.306 77.3466 240.041 93.9659 240.136 113H164.568Z" fill="white" fill-opacity="0.08"/>
<path d="M353.701 22.0909V313H275.292V22.0909H353.701Z" fill="white" fill-opacity="0.08"/>
<path d="M393.652 313V94.8182H472.061V313H393.652ZM432.856 72.0909C422.25 72.0909 413.159 68.5871 405.583 61.5796C398.008 54.572 394.22 46.1439 394.22 36.2954C394.22 26.447 398.008 18.0189 405.583 11.0114C413.159 4.00378 422.25 0.5 432.856 0.5C443.557 0.5 452.648 4.00378 460.129 11.0114C467.705 18.0189 471.493 26.447 471.493 36.2954C471.493 46.1439 467.705 54.572 460.129 61.5796C452.648 68.5871 443.557 72.0909 432.856 72.0909Z" fill="white" fill-opacity="0.08"/>
<path d="M617.125 316.977C593.45 316.977 573.185 312.29 556.329 302.915C539.473 293.445 526.547 280.282 517.551 263.426C508.555 246.475 504.056 226.826 504.056 204.477C504.056 182.129 508.555 162.527 517.551 145.67C526.547 128.72 539.473 115.557 556.329 106.182C573.185 96.7121 593.45 91.9773 617.125 91.9773C638.526 91.9773 657.039 95.8598 672.664 103.625C688.384 111.295 700.553 122.186 709.17 136.295C717.788 150.311 722.144 166.788 722.238 185.727H649.511C648.469 174.269 645.155 165.557 639.568 159.591C634.075 153.53 626.973 150.5 618.261 150.5C611.443 150.5 605.477 152.489 600.363 156.466C595.25 160.348 591.272 166.267 588.431 174.222C585.591 182.081 584.17 191.977 584.17 203.909C584.17 215.841 585.591 225.784 588.431 233.739C591.272 241.598 595.25 247.517 600.363 251.494C605.477 255.377 611.443 257.318 618.261 257.318C624.037 257.318 629.151 255.992 633.602 253.341C638.053 250.595 641.651 246.617 644.397 241.409C647.238 236.106 648.943 229.667 649.511 222.091H722.238C721.954 241.314 717.551 258.076 709.028 272.375C700.505 286.58 688.431 297.564 672.806 305.33C657.276 313.095 638.716 316.977 617.125 316.977Z" fill="white" fill-opacity="0.08"/>
<path d="M825.044 261.295L825.612 168.114H835.839L888.68 94.8182H976.748L888.112 209.023H865.953L825.044 261.295ZM754.589 313V22.0909H832.998V313H754.589ZM889.248 313L839.248 226.636L890.385 170.955L979.021 313H889.248Z" fill="white" fill-opacity="0.08"/>
</svg>
