<svg width="143" height="951" viewBox="0 0 143 951" fill="none" xmlns="http://www.w3.org/2000/svg">
<path d="M0.599649 916H84.5997C92.9997 916 99.4663 913.933 104 909.8C108.533 905.667 110.8 899.6 110.8 891.6C110.8 883.6 108.533 877.467 104 873.2C99.4663 868.933 92.9996 866.8 84.5996 866.8H0.599647L0.599646 832.6H84.3996C96.933 832.6 107.533 835.267 116.2 840.6C124.866 845.933 131.4 853.133 135.8 862.2C140.2 871.133 142.4 881.133 142.4 892.2C142.4 903.267 140.266 913.2 136 922C131.6 930.667 125.066 937.533 116.4 942.6C107.6 947.667 96.933 950.2 84.3997 950.2L0.599651 950.2L0.599649 916Z" fill="white"/>
<path d="M114.6 774.384V729.584H141V808.584H0.599645L0.599643 774.384H114.6Z" fill="white"/>
<path d="M0.599636 612.272H27.9996L27.9996 649.472H141V683.672H27.9996L27.9996 720.872H0.599641L0.599636 612.272Z" fill="white"/>
<path d="M0.599634 560.908H141V595.108H0.599635L0.599634 560.908Z" fill="white"/>
<path d="M0.599626 377.123H141V411.323H56.7996L141 442.723V470.323L56.5996 501.923L141 501.923V536.123H0.599633L0.599631 495.723L97.7996 456.323L0.599628 417.323L0.599626 377.123Z" fill="white"/>
<path d="M116.2 265.13V317.53L141 325.93V361.73L0.599623 310.93L0.599621 271.33L141 220.53V256.73L116.2 265.13ZM89.7996 273.93L38.3996 291.33L89.7996 308.53V273.93Z" fill="white"/>
<path d="M0.599614 104.069H27.9996L27.9996 141.269L141 141.269V175.469L27.9996 175.469L27.9996 212.669H0.599619L0.599614 104.069Z" fill="white"/>
<path d="M27.9996 52.7047L56.3996 52.7047L56.3996 6.90467L82.7996 6.90467V52.7047H113.6L113.6 0.904664L141 0.904663V86.9047L0.599613 86.9047L0.599609 0.904669L27.9996 0.904668L27.9996 52.7047Z" fill="white"/>
</svg>
