<svg width="267" height="40" viewBox="0 0 267 40" fill="none" xmlns="http://www.w3.org/2000/svg">
<path d="M112.277 11.7626C109.265 11.7626 106.544 12.6484 104.221 14.1719V0.283436H97.798V25.899C97.798 33.6935 104.294 39.9646 112.241 39.9646C120.188 39.9646 126.756 33.729 126.756 25.8281C126.756 17.9274 120.333 11.7626 112.277 11.7626ZM78.9279 12.1878C71.779 12.8964 65.9365 18.9194 65.9365 26.0761C65.9365 33.6581 72.5774 40 80.3431 40C88.1089 40 94.7497 33.6581 94.7497 26.0761C94.7497 22.8521 93.5523 19.876 91.6289 17.5376L77.4037 0.318866H69.0936L78.9279 12.1878ZM29.2124 27.7059L23.3336 12.7546H18.8339L12.9187 27.7059L7.00371 12.7546H0L10.3423 39.0434H14.8421L21.0474 23.3835L27.2891 39.0434H31.7889L42.0949 12.7546H35.1275L29.2124 27.7059ZM144.175 11.798C136.155 11.798 129.66 17.8919 129.66 25.5801C129.66 33.2684 135.356 40 143.812 40C148.893 40 152.993 37.6263 155.896 33.5518L150.889 29.5837C149.436 32.1346 146.643 33.6226 143.849 33.6226C140.22 33.6226 136.664 31.1071 136.372 27.4225H157.384V25.5093C157.384 17.4668 151.941 11.798 144.175 11.798ZM226.188 11.798C218.167 11.798 211.709 17.8919 211.709 25.9345C211.709 33.481 217.405 40 225.825 40C230.905 40 235.005 37.6263 237.909 33.5518L233.481 29.9026C231.921 32.2409 229.09 33.6226 225.715 33.6226C222.341 33.6226 218.711 31.1071 218.421 27.4225H239.36V25.2259C239.36 17.4668 233.952 11.798 226.188 11.798ZM248.686 20.4429C248.686 18.8131 250.972 17.5022 253.949 17.5022C256.924 17.5022 260.226 18.9549 262.367 21.2931L266.25 16.6519C262.549 13.4633 258.811 11.798 254.13 11.798C248.288 11.798 242.264 14.4199 242.264 20.4429C242.264 27.8476 248.795 28.3791 254.13 28.8042C257.105 29.0169 259.754 29.2294 259.754 31.1426C259.754 33.1975 256.742 34.1541 254.094 34.1541C251.009 34.1541 247.67 32.8786 245.239 30.0089L241.103 34.2959C244.404 38.2285 249.194 39.9646 253.875 39.9646C259.754 39.9646 266.177 37.2365 266.177 31.0009C266.177 23.9504 259.572 23.2773 254.492 22.7812C251.299 22.4624 248.686 22.1789 248.686 20.4429ZM167.146 18.7423V12.7546H160.723V39.008H167.146V27.9185C168.016 21.7184 173.061 19.2383 178.904 19.2383V12.7546H178.25C173.315 12.7546 169.722 14.5261 167.146 18.7423ZM187.54 18.7423V12.7546H181.116V39.008H187.54V27.9185C188.411 20.9389 194.58 19.2383 199.298 19.2383V12.7546H198.607C193.745 12.7546 190.08 14.4908 187.54 18.7423ZM56.2111 39.008H62.6342V0.318866H56.2111V39.008ZM80.3794 33.6935C75.9522 33.6935 72.3596 30.2214 72.3596 25.899C72.3596 21.5766 75.9522 18.0691 80.3431 18.0691C84.734 18.0691 88.4355 21.5411 88.4355 25.899C88.4355 30.2569 84.8066 33.6935 80.3794 33.6935ZM112.241 33.6935C107.886 33.6935 104.221 30.2923 104.221 25.8636C104.221 21.4349 107.669 18.0691 112.277 18.0691C116.886 18.0691 120.333 21.5766 120.333 25.8636C120.333 30.1506 116.668 33.6935 112.241 33.6935ZM45.1069 39.008H51.5299V12.7546H45.1069V39.008ZM202.055 39.008H208.479V12.7546H202.055V39.008ZM48.2276 0C45.6149 0 43.4375 2.12577 43.4375 4.81842C43.4375 7.51108 45.7238 9.38884 48.2276 9.38884C51.0219 9.38884 53.1266 7.12135 53.1266 4.6767C53.1266 2.23206 50.913 0 48.2276 0ZM205.249 0C202.636 0 200.423 2.12577 200.423 4.78299C200.423 7.44021 202.564 9.35341 205.357 9.35341C208.151 9.35341 210.075 7.47564 210.075 4.88929C210.075 2.30293 207.898 0 205.249 0ZM219.184 22.1789C220.236 19.5925 222.523 18.0691 225.898 18.0691C229.271 18.0691 231.304 19.6634 232.175 22.1789H219.184ZM137.135 22.1789C138.224 19.5925 140.474 18.0691 143.812 18.0691C147.15 18.0691 149.327 19.6634 150.199 22.1789H137.135Z" fill="white"/>
</svg>
